<svg xmlns="http://www.w3.org/2000/svg" xmlns:xlink="http://www.w3.org/1999/xlink" version="1.1" x="0px" y="0px" viewBox="0 0 48 60" style="enable-background:new 0 0 48 48;" xml:space="preserve"><path d="M11.643,17.426C10.568,19.441,10,21.715,10,24s0.568,4.559,1.643,6.574c0.26,0.487,0.075,1.094-0.412,1.354  c-0.49,0.257-1.093,0.073-1.354-0.412C8.65,29.211,8,26.612,8,24s0.649-5.211,1.877-7.516c0.261-0.485,0.863-0.669,1.354-0.412  C11.718,16.332,11.902,16.938,11.643,17.426z M14.614,18.196c-0.494-0.244-1.095-0.047-1.342,0.447C12.428,20.331,12,22.134,12,24  s0.428,3.669,1.272,5.356c0.247,0.494,0.848,0.691,1.342,0.447c0.494-0.247,0.694-0.848,0.447-1.342C14.358,27.055,14,25.553,14,24  s0.357-3.055,1.062-4.462C15.309,19.044,15.109,18.443,14.614,18.196z M36.77,16.072c-0.487,0.26-0.672,0.866-0.412,1.354  C37.432,19.441,38,21.715,38,24s-0.568,4.559-1.643,6.574c-0.26,0.487-0.075,1.094,0.412,1.354c0.49,0.257,1.093,0.073,1.354-0.412  C39.351,29.211,40,26.612,40,24s-0.649-5.211-1.877-7.516C37.862,15.999,37.26,15.815,36.77,16.072z M33.386,18.196  c-0.494,0.247-0.694,0.848-0.447,1.342C33.643,20.945,34,22.447,34,24s-0.357,3.055-1.062,4.462  c-0.247,0.494-0.047,1.095,0.447,1.342c0.494,0.244,1.095,0.047,1.342-0.447C35.572,27.669,36,25.866,36,24  s-0.428-3.669-1.272-5.356C34.481,18.149,33.88,17.952,33.386,18.196z M31.516,9.877C29.211,8.649,26.612,8,24,8  s-5.211,0.649-7.516,1.877c-0.485,0.261-0.669,0.863-0.412,1.354c0.26,0.487,0.866,0.672,1.354,0.412C19.442,10.568,21.715,10,24,10  s4.559,0.568,6.574,1.643c0.487,0.26,1.094,0.075,1.354-0.412C32.185,10.74,32.001,10.138,31.516,9.877z M29.357,13.272  C27.669,12.428,25.866,12,24,12s-3.669,0.428-5.356,1.272c-0.494,0.247-0.691,0.848-0.447,1.342  c0.247,0.494,0.848,0.694,1.342,0.447C20.945,14.357,22.447,14,24,14s3.055,0.357,4.462,1.062c0.494,0.247,1.095,0.047,1.342-0.447  C30.048,14.12,29.851,13.52,29.357,13.272z M48,24c0,1.379-0.94,2.531-2.21,2.881c-0.499,3.812-1.973,7.389-4.304,10.442  C41.811,37.802,42,38.379,42,39c0,1.654-1.346,3-3,3c-0.619,0-1.194-0.189-1.672-0.511c-1.04,0.793-2.154,1.493-3.328,2.094V47  c0,0.553-0.447,1-1,1H15c-0.553,0-1-0.447-1-1v-3.417c-1.173-0.6-2.288-1.301-3.328-2.094C10.194,41.811,9.619,42,9,42  c-1.654,0-3-1.346-3-3c0-0.621,0.189-1.198,0.513-1.677c-2.331-3.055-3.805-6.631-4.304-10.442C0.94,26.531,0,25.379,0,24  s0.94-2.531,2.21-2.881c0.499-3.811,1.973-7.387,4.304-10.442C6.19,10.198,6,9.621,6,9c0-1.654,1.346-3,3-3  c0.621,0,1.198,0.19,1.677,0.514c3.053-2.332,6.63-3.805,10.442-4.304C21.469,0.94,22.621,0,24,0s2.531,0.94,2.881,2.21  c3.812,0.499,7.389,1.973,10.442,4.304C37.802,6.19,38.379,6,39,6c1.654,0,3,1.346,3,3c0,0.621-0.19,1.198-0.514,1.677  c2.332,3.053,3.805,6.63,4.304,10.442C47.06,21.469,48,22.621,48,24z M38,9c0,0.552,0.448,1,1,1s1-0.448,1-1s-0.448-1-1-1  S38,8.448,38,9z M23,3c0,0.552,0.448,1,1,1s1-0.448,1-1s-0.448-1-1-1S23,2.448,23,3z M8,9c0,0.552,0.448,1,1,1s1-0.448,1-1  S9.552,8,9,8S8,8.448,8,9z M4,24c0-0.552-0.448-1-1-1s-1,0.448-1,1s0.448,1,1,1S4,24.552,4,24z M10,39c0-0.552-0.448-1-1-1  s-1,0.448-1,1s0.448,1,1,1S10,39.552,10,39z M32,38c0-3.309-2.691-6-6-6h-4c-3.309,0-6,2.691-6,6v8h16V38z M24,30  c3.309,0,6-2.691,6-6s-2.691-6-6-6s-6,2.691-6,6S20.692,30,24,30z M40,39c0-0.552-0.448-1-1-1s-1,0.448-1,1s0.448,1,1,1  S40,39.552,40,39z M43.792,26.741C42.739,26.275,42,25.224,42,24s0.739-2.275,1.792-2.742c-0.469-3.434-1.812-6.652-3.92-9.403  C39.595,11.941,39.306,12,39,12c-1.654,0-3-1.346-3-3c0-0.305,0.059-0.595,0.145-0.872c-2.751-2.108-5.969-3.45-9.403-3.92  C26.276,5.261,25.224,6,24,6s-2.275-0.739-2.741-1.792c-3.434,0.469-6.652,1.812-9.403,3.92C11.941,8.405,12,8.695,12,9  c0,1.654-1.346,3-3,3c-0.305,0-0.594-0.059-0.872-0.144c-2.109,2.751-3.451,5.971-3.92,9.403C5.261,21.725,6,22.776,6,24  s-0.739,2.275-1.792,2.741c0.469,3.432,1.812,6.651,3.92,9.403C8.406,36.059,8.695,36,9,36c1.654,0,3,1.346,3,3  c0,0.307-0.06,0.598-0.146,0.877c0.682,0.521,1.398,1,2.146,1.432V38c0-3.469,2.224-6.421,5.317-7.527  C17.312,29.018,16,26.662,16,24c0-4.411,3.589-8,8-8s8,3.589,8,8c0,2.662-1.312,5.018-3.317,6.473C31.776,31.579,34,34.531,34,38  v3.309c0.748-0.432,1.464-0.911,2.146-1.432C36.06,39.598,36,39.307,36,39c0-1.654,1.346-3,3-3c0.305,0,0.595,0.059,0.872,0.145  C41.981,33.394,43.323,30.175,43.792,26.741z M46,24c0-0.552-0.448-1-1-1s-1,0.448-1,1s0.448,1,1,1S46,24.552,46,24z"/></svg>
