<svg xmlns="http://www.w3.org/2000/svg" width="128" height="128" fill="none" viewBox="0 0 128 128" id="vr-headset">
  <path stroke="#1B1B1B" stroke-linejoin="round" stroke-width="6" d="M21.7295 64.0723C22.4647 53.6887 30.0373 45.0714 40.2403 43.0078C56.5813 39.7027 73.4187 39.7027 89.7597 43.0078C99.9627 45.0714 107.535 53.6887 108.27 64.0723L108.729 70.5422C109.436 80.536 102.054 89.2745 92.0821 90.2464C87.1366 90.7284 82.2053 89.1991 78.4002 86.0035L70.7832 79.6063C69.1632 78.2458 67.1155 77.5 65 77.5C62.8845 77.5 60.8368 78.2458 59.2168 79.6063L51.5998 86.0035C47.7947 89.1991 42.8634 90.7284 37.9179 90.2464C27.9463 89.2745 20.5639 80.536 21.2714 70.5422L21.7295 64.0723Z"></path>
  <path stroke="#1B1B1B" stroke-linecap="round" stroke-width="6" d="M45 54L49.8754 53.5125C59.9334 52.5067 70.0666 52.5067 80.1246 53.5125L85 54"></path>
</svg>
